<mxfile host="Electron" modified="2025-01-30T13:00:31.524Z" agent="Mozilla/5.0 (Windows NT 10.0; Win64; x64) AppleWebKit/537.36 (KHTML, like Gecko) draw.io/22.1.21 Chrome/120.0.6099.109 Electron/28.1.0 Safari/537.36" etag="kNa3FJPB4AoH6XBf4CP4" version="22.1.21" type="device">
  <diagram name="Page-1" id="FKHlyDpzjuHAsDGd_DU5">
    <mxGraphModel dx="732" dy="1620" grid="1" gridSize="10" guides="1" tooltips="1" connect="1" arrows="1" fold="1" page="1" pageScale="1" pageWidth="2339" pageHeight="3300" math="0" shadow="0">
      <root>
        <mxCell id="0" />
        <mxCell id="1" parent="0" />
        <mxCell id="Nv3fs4bzQhII8DKi3ebk-18" value="Project" style="swimlane;childLayout=stackLayout;horizontal=1;startSize=50;horizontalStack=0;rounded=1;fontSize=14;fontStyle=0;strokeWidth=2;resizeParent=0;resizeLast=1;shadow=0;dashed=0;align=center;arcSize=4;whiteSpace=wrap;html=1;" vertex="1" parent="1">
          <mxGeometry x="650" y="510" width="160" height="120" as="geometry" />
        </mxCell>
        <mxCell id="Nv3fs4bzQhII8DKi3ebk-19" value="+Attribute1&#xa;+Attribute2&#xa;+Attribute3" style="align=left;strokeColor=none;fillColor=none;spacingLeft=4;fontSize=12;verticalAlign=top;resizable=0;rotatable=0;part=1;html=1;" vertex="1" parent="Nv3fs4bzQhII8DKi3ebk-18">
          <mxGeometry y="50" width="160" height="70" as="geometry" />
        </mxCell>
        <mxCell id="Nv3fs4bzQhII8DKi3ebk-20" value="Floor" style="swimlane;childLayout=stackLayout;horizontal=1;startSize=50;horizontalStack=0;rounded=1;fontSize=14;fontStyle=0;strokeWidth=2;resizeParent=0;resizeLast=1;shadow=0;dashed=0;align=center;arcSize=4;whiteSpace=wrap;html=1;" vertex="1" parent="1">
          <mxGeometry x="650" y="720" width="160" height="120" as="geometry" />
        </mxCell>
        <mxCell id="Nv3fs4bzQhII8DKi3ebk-21" value="+Attribute1&#xa;+Attribute2&#xa;+Attribute3" style="align=left;strokeColor=none;fillColor=none;spacingLeft=4;fontSize=12;verticalAlign=top;resizable=0;rotatable=0;part=1;html=1;" vertex="1" parent="Nv3fs4bzQhII8DKi3ebk-20">
          <mxGeometry y="50" width="160" height="70" as="geometry" />
        </mxCell>
        <mxCell id="Nv3fs4bzQhII8DKi3ebk-22" value="Room" style="swimlane;childLayout=stackLayout;horizontal=1;startSize=50;horizontalStack=0;rounded=1;fontSize=14;fontStyle=0;strokeWidth=2;resizeParent=0;resizeLast=1;shadow=0;dashed=0;align=center;arcSize=4;whiteSpace=wrap;html=1;" vertex="1" parent="1">
          <mxGeometry x="650" y="920" width="160" height="120" as="geometry" />
        </mxCell>
        <mxCell id="Nv3fs4bzQhII8DKi3ebk-23" value="+Attribute1&#xa;+Attribute2&#xa;+Attribute3" style="align=left;strokeColor=none;fillColor=none;spacingLeft=4;fontSize=12;verticalAlign=top;resizable=0;rotatable=0;part=1;html=1;" vertex="1" parent="Nv3fs4bzQhII8DKi3ebk-22">
          <mxGeometry y="50" width="160" height="70" as="geometry" />
        </mxCell>
        <mxCell id="Nv3fs4bzQhII8DKi3ebk-24" value="Consumer" style="swimlane;childLayout=stackLayout;horizontal=1;startSize=50;horizontalStack=0;rounded=1;fontSize=14;fontStyle=0;strokeWidth=2;resizeParent=0;resizeLast=1;shadow=0;dashed=0;align=center;arcSize=4;whiteSpace=wrap;html=1;" vertex="1" parent="1">
          <mxGeometry x="650" y="1130" width="160" height="120" as="geometry" />
        </mxCell>
        <mxCell id="Nv3fs4bzQhII8DKi3ebk-25" value="+Attribute1&#xa;+Attribute2&#xa;+Attribute3" style="align=left;strokeColor=none;fillColor=none;spacingLeft=4;fontSize=12;verticalAlign=top;resizable=0;rotatable=0;part=1;html=1;" vertex="1" parent="Nv3fs4bzQhII8DKi3ebk-24">
          <mxGeometry y="50" width="160" height="70" as="geometry" />
        </mxCell>
        <mxCell id="Nv3fs4bzQhII8DKi3ebk-26" value="Initial Settings" style="swimlane;childLayout=stackLayout;horizontal=1;startSize=50;horizontalStack=0;rounded=1;fontSize=14;fontStyle=0;strokeWidth=2;resizeParent=0;resizeLast=1;shadow=0;dashed=0;align=center;arcSize=4;whiteSpace=wrap;html=1;" vertex="1" parent="1">
          <mxGeometry x="310" y="430" width="160" height="120" as="geometry" />
        </mxCell>
        <mxCell id="Nv3fs4bzQhII8DKi3ebk-27" value="+Attribute1&#xa;+Attribute2&#xa;+Attribute3" style="align=left;strokeColor=none;fillColor=none;spacingLeft=4;fontSize=12;verticalAlign=top;resizable=0;rotatable=0;part=1;html=1;" vertex="1" parent="Nv3fs4bzQhII8DKi3ebk-26">
          <mxGeometry y="50" width="160" height="70" as="geometry" />
        </mxCell>
        <mxCell id="Nv3fs4bzQhII8DKi3ebk-28" value="Global Grouping" style="swimlane;childLayout=stackLayout;horizontal=1;startSize=50;horizontalStack=0;rounded=1;fontSize=14;fontStyle=0;strokeWidth=2;resizeParent=0;resizeLast=1;shadow=0;dashed=0;align=center;arcSize=4;whiteSpace=wrap;html=1;" vertex="1" parent="1">
          <mxGeometry x="310" y="620" width="160" height="120" as="geometry" />
        </mxCell>
        <mxCell id="Nv3fs4bzQhII8DKi3ebk-29" value="+Attribute1&#xa;+Attribute2&#xa;+Attribute3" style="align=left;strokeColor=none;fillColor=none;spacingLeft=4;fontSize=12;verticalAlign=top;resizable=0;rotatable=0;part=1;html=1;" vertex="1" parent="Nv3fs4bzQhII8DKi3ebk-28">
          <mxGeometry y="50" width="160" height="70" as="geometry" />
        </mxCell>
        <mxCell id="Nv3fs4bzQhII8DKi3ebk-30" value="Floor Grouping" style="swimlane;childLayout=stackLayout;horizontal=1;startSize=50;horizontalStack=0;rounded=1;fontSize=14;fontStyle=0;strokeWidth=2;resizeParent=0;resizeLast=1;shadow=0;dashed=0;align=center;arcSize=4;whiteSpace=wrap;html=1;" vertex="1" parent="1">
          <mxGeometry x="310" y="830" width="160" height="120" as="geometry" />
        </mxCell>
        <mxCell id="Nv3fs4bzQhII8DKi3ebk-31" value="+Attribute1&#xa;+Attribute2&#xa;+Attribute3" style="align=left;strokeColor=none;fillColor=none;spacingLeft=4;fontSize=12;verticalAlign=top;resizable=0;rotatable=0;part=1;html=1;" vertex="1" parent="Nv3fs4bzQhII8DKi3ebk-30">
          <mxGeometry y="50" width="160" height="70" as="geometry" />
        </mxCell>
        <mxCell id="Nv3fs4bzQhII8DKi3ebk-37" style="edgeStyle=orthogonalEdgeStyle;rounded=0;orthogonalLoop=1;jettySize=auto;html=1;curved=1;" edge="1" parent="1" source="Nv3fs4bzQhII8DKi3ebk-27" target="Nv3fs4bzQhII8DKi3ebk-18">
          <mxGeometry relative="1" as="geometry" />
        </mxCell>
        <mxCell id="Nv3fs4bzQhII8DKi3ebk-38" style="edgeStyle=orthogonalEdgeStyle;rounded=0;orthogonalLoop=1;jettySize=auto;html=1;curved=1;" edge="1" parent="1" source="Nv3fs4bzQhII8DKi3ebk-29" target="Nv3fs4bzQhII8DKi3ebk-18">
          <mxGeometry relative="1" as="geometry">
            <Array as="points">
              <mxPoint x="570" y="705" />
              <mxPoint x="570" y="570" />
            </Array>
          </mxGeometry>
        </mxCell>
        <mxCell id="Nv3fs4bzQhII8DKi3ebk-39" style="edgeStyle=orthogonalEdgeStyle;rounded=0;orthogonalLoop=1;jettySize=auto;html=1;curved=1;" edge="1" parent="1" source="Nv3fs4bzQhII8DKi3ebk-31" target="Nv3fs4bzQhII8DKi3ebk-18">
          <mxGeometry relative="1" as="geometry">
            <Array as="points">
              <mxPoint x="580" y="915" />
              <mxPoint x="580" y="570" />
            </Array>
          </mxGeometry>
        </mxCell>
        <mxCell id="Nv3fs4bzQhII8DKi3ebk-40" style="edgeStyle=orthogonalEdgeStyle;rounded=0;orthogonalLoop=1;jettySize=auto;html=1;" edge="1" parent="1" source="Nv3fs4bzQhII8DKi3ebk-19" target="Nv3fs4bzQhII8DKi3ebk-20">
          <mxGeometry relative="1" as="geometry" />
        </mxCell>
        <mxCell id="Nv3fs4bzQhII8DKi3ebk-41" style="edgeStyle=orthogonalEdgeStyle;rounded=0;orthogonalLoop=1;jettySize=auto;html=1;" edge="1" parent="1" source="Nv3fs4bzQhII8DKi3ebk-21" target="Nv3fs4bzQhII8DKi3ebk-22">
          <mxGeometry relative="1" as="geometry" />
        </mxCell>
        <mxCell id="Nv3fs4bzQhII8DKi3ebk-42" style="edgeStyle=orthogonalEdgeStyle;rounded=0;orthogonalLoop=1;jettySize=auto;html=1;" edge="1" parent="1" source="Nv3fs4bzQhII8DKi3ebk-23" target="Nv3fs4bzQhII8DKi3ebk-24">
          <mxGeometry relative="1" as="geometry" />
        </mxCell>
        <mxCell id="Nv3fs4bzQhII8DKi3ebk-43" value="Base Entity" style="swimlane;childLayout=stackLayout;horizontal=1;startSize=50;horizontalStack=0;rounded=1;fontSize=14;fontStyle=0;strokeWidth=2;resizeParent=0;resizeLast=1;shadow=0;dashed=0;align=center;arcSize=4;whiteSpace=wrap;html=1;" vertex="1" parent="1">
          <mxGeometry x="860" y="230" width="160" height="120" as="geometry" />
        </mxCell>
        <mxCell id="Nv3fs4bzQhII8DKi3ebk-44" value="+Attribute1&#xa;+Attribute2&#xa;+Attribute3" style="align=left;strokeColor=none;fillColor=none;spacingLeft=4;fontSize=12;verticalAlign=top;resizable=0;rotatable=0;part=1;html=1;" vertex="1" parent="Nv3fs4bzQhII8DKi3ebk-43">
          <mxGeometry y="50" width="160" height="70" as="geometry" />
        </mxCell>
        <mxCell id="Nv3fs4bzQhII8DKi3ebk-47" style="edgeStyle=orthogonalEdgeStyle;rounded=0;orthogonalLoop=1;jettySize=auto;html=1;entryX=0.577;entryY=0.015;entryDx=0;entryDy=0;entryPerimeter=0;curved=1;" edge="1" parent="1" source="Nv3fs4bzQhII8DKi3ebk-44" target="Nv3fs4bzQhII8DKi3ebk-18">
          <mxGeometry relative="1" as="geometry" />
        </mxCell>
        <mxCell id="Nv3fs4bzQhII8DKi3ebk-48" value="BaseElectrical" style="swimlane;childLayout=stackLayout;horizontal=1;startSize=50;horizontalStack=0;rounded=1;fontSize=14;fontStyle=0;strokeWidth=2;resizeParent=0;resizeLast=1;shadow=0;dashed=0;align=center;arcSize=4;whiteSpace=wrap;html=1;" vertex="1" parent="1">
          <mxGeometry x="1400" y="450" width="160" height="120" as="geometry" />
        </mxCell>
        <mxCell id="Nv3fs4bzQhII8DKi3ebk-49" value="+Attribute1&#xa;+Attribute2&#xa;+Attribute3" style="align=left;strokeColor=none;fillColor=none;spacingLeft=4;fontSize=12;verticalAlign=top;resizable=0;rotatable=0;part=1;html=1;" vertex="1" parent="Nv3fs4bzQhII8DKi3ebk-48">
          <mxGeometry y="50" width="160" height="70" as="geometry" />
        </mxCell>
        <mxCell id="Nv3fs4bzQhII8DKi3ebk-52" value="Fuse" style="swimlane;childLayout=stackLayout;horizontal=1;startSize=50;horizontalStack=0;rounded=1;fontSize=14;fontStyle=0;strokeWidth=2;resizeParent=0;resizeLast=1;shadow=0;dashed=0;align=center;arcSize=4;whiteSpace=wrap;html=1;" vertex="1" parent="1">
          <mxGeometry x="1230" y="850" width="160" height="120" as="geometry" />
        </mxCell>
        <mxCell id="Nv3fs4bzQhII8DKi3ebk-53" value="+Attribute1&#xa;+Attribute2&#xa;+Attribute3" style="align=left;strokeColor=none;fillColor=none;spacingLeft=4;fontSize=12;verticalAlign=top;resizable=0;rotatable=0;part=1;html=1;" vertex="1" parent="Nv3fs4bzQhII8DKi3ebk-52">
          <mxGeometry y="50" width="160" height="70" as="geometry" />
        </mxCell>
        <mxCell id="Nv3fs4bzQhII8DKi3ebk-54" value="Component" style="swimlane;childLayout=stackLayout;horizontal=1;startSize=50;horizontalStack=0;rounded=1;fontSize=14;fontStyle=0;strokeWidth=2;resizeParent=0;resizeLast=1;shadow=0;dashed=0;align=center;arcSize=4;whiteSpace=wrap;html=1;" vertex="1" parent="1">
          <mxGeometry x="1400" y="650" width="160" height="120" as="geometry" />
        </mxCell>
        <mxCell id="Nv3fs4bzQhII8DKi3ebk-55" value="+Attribute1&#xa;+Attribute2&#xa;+Attribute3" style="align=left;strokeColor=none;fillColor=none;spacingLeft=4;fontSize=12;verticalAlign=top;resizable=0;rotatable=0;part=1;html=1;" vertex="1" parent="Nv3fs4bzQhII8DKi3ebk-54">
          <mxGeometry y="50" width="160" height="70" as="geometry" />
        </mxCell>
        <mxCell id="Nv3fs4bzQhII8DKi3ebk-56" style="edgeStyle=orthogonalEdgeStyle;rounded=0;orthogonalLoop=1;jettySize=auto;html=1;entryX=0.5;entryY=0;entryDx=0;entryDy=0;" edge="1" parent="1" source="Nv3fs4bzQhII8DKi3ebk-49" target="Nv3fs4bzQhII8DKi3ebk-54">
          <mxGeometry relative="1" as="geometry" />
        </mxCell>
        <mxCell id="Nv3fs4bzQhII8DKi3ebk-57" style="edgeStyle=orthogonalEdgeStyle;rounded=0;orthogonalLoop=1;jettySize=auto;html=1;curved=1;" edge="1" parent="1" source="Nv3fs4bzQhII8DKi3ebk-55" target="Nv3fs4bzQhII8DKi3ebk-52">
          <mxGeometry relative="1" as="geometry" />
        </mxCell>
        <mxCell id="Nv3fs4bzQhII8DKi3ebk-58" value="Contactor" style="swimlane;childLayout=stackLayout;horizontal=1;startSize=50;horizontalStack=0;rounded=1;fontSize=14;fontStyle=0;strokeWidth=2;resizeParent=0;resizeLast=1;shadow=0;dashed=0;align=center;arcSize=4;whiteSpace=wrap;html=1;" vertex="1" parent="1">
          <mxGeometry x="1440" y="850" width="160" height="120" as="geometry" />
        </mxCell>
        <mxCell id="Nv3fs4bzQhII8DKi3ebk-59" value="+Attribute1&#xa;+Attribute2&#xa;+Attribute3" style="align=left;strokeColor=none;fillColor=none;spacingLeft=4;fontSize=12;verticalAlign=top;resizable=0;rotatable=0;part=1;html=1;" vertex="1" parent="Nv3fs4bzQhII8DKi3ebk-58">
          <mxGeometry y="50" width="160" height="70" as="geometry" />
        </mxCell>
        <mxCell id="Nv3fs4bzQhII8DKi3ebk-60" style="edgeStyle=orthogonalEdgeStyle;rounded=0;orthogonalLoop=1;jettySize=auto;html=1;curved=1;" edge="1" parent="1" source="Nv3fs4bzQhII8DKi3ebk-55" target="Nv3fs4bzQhII8DKi3ebk-58">
          <mxGeometry relative="1" as="geometry" />
        </mxCell>
        <mxCell id="Nv3fs4bzQhII8DKi3ebk-61" value="Intoductory" style="swimlane;childLayout=stackLayout;horizontal=1;startSize=50;horizontalStack=0;rounded=1;fontSize=14;fontStyle=0;strokeWidth=2;resizeParent=0;resizeLast=1;shadow=0;dashed=0;align=center;arcSize=4;whiteSpace=wrap;html=1;" vertex="1" parent="1">
          <mxGeometry x="1660" y="850" width="160" height="120" as="geometry" />
        </mxCell>
        <mxCell id="Nv3fs4bzQhII8DKi3ebk-62" value="+Attribute1&#xa;+Attribute2&#xa;+Attribute3" style="align=left;strokeColor=none;fillColor=none;spacingLeft=4;fontSize=12;verticalAlign=top;resizable=0;rotatable=0;part=1;html=1;" vertex="1" parent="Nv3fs4bzQhII8DKi3ebk-61">
          <mxGeometry y="50" width="160" height="70" as="geometry" />
        </mxCell>
        <mxCell id="Nv3fs4bzQhII8DKi3ebk-63" style="edgeStyle=orthogonalEdgeStyle;rounded=0;orthogonalLoop=1;jettySize=auto;html=1;curved=1;" edge="1" parent="1" source="Nv3fs4bzQhII8DKi3ebk-55" target="Nv3fs4bzQhII8DKi3ebk-61">
          <mxGeometry relative="1" as="geometry" />
        </mxCell>
        <mxCell id="Nv3fs4bzQhII8DKi3ebk-64" value="RCDFire" style="swimlane;childLayout=stackLayout;horizontal=1;startSize=50;horizontalStack=0;rounded=1;fontSize=14;fontStyle=0;strokeWidth=2;resizeParent=0;resizeLast=1;shadow=0;dashed=0;align=center;arcSize=4;whiteSpace=wrap;html=1;" vertex="1" parent="1">
          <mxGeometry x="1880" y="850" width="160" height="120" as="geometry" />
        </mxCell>
        <mxCell id="Nv3fs4bzQhII8DKi3ebk-65" value="+Attribute1&#xa;+Attribute2&#xa;+Attribute3" style="align=left;strokeColor=none;fillColor=none;spacingLeft=4;fontSize=12;verticalAlign=top;resizable=0;rotatable=0;part=1;html=1;" vertex="1" parent="Nv3fs4bzQhII8DKi3ebk-64">
          <mxGeometry y="50" width="160" height="70" as="geometry" />
        </mxCell>
        <mxCell id="Nv3fs4bzQhII8DKi3ebk-66" style="edgeStyle=orthogonalEdgeStyle;rounded=0;orthogonalLoop=1;jettySize=auto;html=1;curved=1;" edge="1" parent="1" source="Nv3fs4bzQhII8DKi3ebk-55" target="Nv3fs4bzQhII8DKi3ebk-64">
          <mxGeometry relative="1" as="geometry" />
        </mxCell>
        <mxCell id="Nv3fs4bzQhII8DKi3ebk-67" value="RCD" style="swimlane;childLayout=stackLayout;horizontal=1;startSize=50;horizontalStack=0;rounded=1;fontSize=14;fontStyle=0;strokeWidth=2;resizeParent=0;resizeLast=1;shadow=0;dashed=0;align=center;arcSize=4;whiteSpace=wrap;html=1;" vertex="1" parent="1">
          <mxGeometry x="2090" y="850" width="160" height="120" as="geometry" />
        </mxCell>
        <mxCell id="Nv3fs4bzQhII8DKi3ebk-68" value="+Attribute1&#xa;+Attribute2&#xa;+Attribute3" style="align=left;strokeColor=none;fillColor=none;spacingLeft=4;fontSize=12;verticalAlign=top;resizable=0;rotatable=0;part=1;html=1;" vertex="1" parent="Nv3fs4bzQhII8DKi3ebk-67">
          <mxGeometry y="50" width="160" height="70" as="geometry" />
        </mxCell>
        <mxCell id="Nv3fs4bzQhII8DKi3ebk-69" style="edgeStyle=orthogonalEdgeStyle;rounded=0;orthogonalLoop=1;jettySize=auto;html=1;curved=1;" edge="1" parent="1" source="Nv3fs4bzQhII8DKi3ebk-55" target="Nv3fs4bzQhII8DKi3ebk-67">
          <mxGeometry relative="1" as="geometry" />
        </mxCell>
        <mxCell id="Nv3fs4bzQhII8DKi3ebk-70" style="edgeStyle=orthogonalEdgeStyle;rounded=0;orthogonalLoop=1;jettySize=auto;html=1;curved=1;" edge="1" parent="1" source="Nv3fs4bzQhII8DKi3ebk-44" target="Nv3fs4bzQhII8DKi3ebk-48">
          <mxGeometry relative="1" as="geometry" />
        </mxCell>
        <mxCell id="Nv3fs4bzQhII8DKi3ebk-71" value="FuseBox" style="swimlane;childLayout=stackLayout;horizontal=1;startSize=50;horizontalStack=0;rounded=1;fontSize=14;fontStyle=0;strokeWidth=2;resizeParent=0;resizeLast=1;shadow=0;dashed=0;align=center;arcSize=4;whiteSpace=wrap;html=1;" vertex="1" parent="1">
          <mxGeometry x="1030" y="600" width="160" height="120" as="geometry" />
        </mxCell>
        <mxCell id="Nv3fs4bzQhII8DKi3ebk-72" value="+Attribute1&#xa;+Attribute2&#xa;+Attribute3" style="align=left;strokeColor=none;fillColor=none;spacingLeft=4;fontSize=12;verticalAlign=top;resizable=0;rotatable=0;part=1;html=1;" vertex="1" parent="Nv3fs4bzQhII8DKi3ebk-71">
          <mxGeometry y="50" width="160" height="70" as="geometry" />
        </mxCell>
      </root>
    </mxGraphModel>
  </diagram>
</mxfile>
